<svg width="100" height="100" viewBox="0 0 100 100" fill="none" xmlns="http://www.w3.org/2000/svg">
<path d="M89.9844 0H10.0156C4.48414 0 0 5.47824 0 12.236V87.764C0 94.5218 4.48414 100 10.0156 100H89.9844C95.5159 100 100 94.5218 100 87.764V12.236C100 5.47824 95.5159 0 89.9844 0Z" fill="#0000FF"/>
<path d="M73.428 29.3705V70.3008H26.572V42.328H36.4916V60.379H63.5019V39.2967H26.572V29.3705H44.0688V25.9285H56.1985V29.3705H73.428Z" fill="white"/>
<path d="M49.9989 57.4845C54.0325 57.4845 57.3023 54.2146 57.3023 50.1811C57.3023 46.1475 54.0325 42.8777 49.9989 42.8777C45.9654 42.8777 42.6955 46.1475 42.6955 50.1811C42.6955 54.2146 45.9654 57.4845 49.9989 57.4845Z" fill="white"/>
</svg>
