<svg width="100" height="100" viewBox="0 0 100 100" fill="none" xmlns="http://www.w3.org/2000/svg">
<path d="M89.9844 0H10.0156C4.48414 0 0 5.47824 0 12.236V87.764C0 94.5218 4.48414 100 10.0156 100H89.9844C95.5159 100 100 94.5218 100 87.764V12.236C100 5.47824 95.5159 0 89.9844 0Z" fill="#0000FF"/>
<path d="M73.743 40.5716L59.4461 26.2747C58.3062 25.1369 56.7911 24.5088 55.176 24.5088C53.563 24.5088 52.0458 25.1369 50.908 26.2747L39.3905 37.7922C37.0373 40.1454 37.0373 43.9771 39.3905 46.3304L41.0463 47.9862L24.49 64.5446L24.9386 75.0465L35.4365 75.4911L40.6793 70.2483L40.5121 68.1438L44.2785 68.2376V64.1123H46.8887L49.9536 61.0473L46.3136 57.4074L44.7557 58.9653H39.1295V62.9601L34.9308 62.8561L35.361 68.2886L33.5135 70.1361L29.8776 70.0341L29.847 66.4696L44.6884 51.6282L53.6874 60.6273C54.8253 61.7672 56.3424 62.3932 57.9575 62.3932C59.5726 62.3932 61.0877 61.7651 62.2276 60.6273L73.7451 49.1098C76.0983 46.7566 76.0983 42.9249 73.7451 40.5716H73.743ZM70.362 44.8417C70.362 45.0803 70.2702 45.3026 70.103 45.4698L58.5856 56.9873C58.4184 57.1545 58.194 57.2463 57.9575 57.2463C57.721 57.2463 57.4966 57.1545 57.3294 56.9873L43.0325 42.6904C42.6859 42.3437 42.6859 41.7789 43.0325 41.4322L54.55 29.9147C54.7172 29.7475 54.9415 29.6558 55.1781 29.6558C55.4146 29.6558 55.6389 29.7475 55.8061 29.9147L70.103 44.2116C70.2702 44.3788 70.362 44.6032 70.362 44.8397V44.8417Z" fill="white"/>
<path d="M56.5382 43.2878C57.1948 43.9444 58.0697 44.3074 58.9995 44.3074C59.9294 44.3074 60.8042 43.9444 61.4609 43.2878C62.819 41.9297 62.819 39.7212 61.4609 38.3631C60.8042 37.7044 59.9294 37.3435 58.9995 37.3435C58.0697 37.3435 57.1948 37.7065 56.5382 38.3631C55.8816 39.0197 55.5186 39.8946 55.5186 40.8244C55.5186 41.7543 55.8816 42.6291 56.5382 43.2858V43.2878Z" fill="white"/>
</svg>
