<svg width="100" height="100" viewBox="0 0 100 100" fill="none" xmlns="http://www.w3.org/2000/svg">
<path d="M89.9844 0H10.0156C4.48414 0 0 5.47824 0 12.236V87.764C0 94.5218 4.48414 100 10.0156 100H89.9844C95.5159 100 100 94.5218 100 87.764V12.236C100 5.47824 95.5159 0 89.9844 0Z" fill="#0000FF"/>
<path d="M85.7134 50.8941C87.6448 51.6098 88.9747 50.6846 88.9809 48.6062C88.9892 45.5237 88.9768 42.4413 88.9996 39.3568C89.0079 38.3695 88.9643 37.407 88.4996 36.5109C88.1946 36.208 87.8917 35.9031 87.5867 35.6003C86.7175 35.1356 85.7818 35.0713 84.813 35.0838C82.5205 35.1149 80.228 35.1024 77.8567 35.1086C77.8318 32.4992 76.7841 30.4103 74.7219 28.8878C73.3112 27.8465 71.6909 27.4275 69.9316 27.5105C66.8591 27.6577 63.0998 30.0826 62.8675 35.2165C56.8676 35.1709 50.8574 35.1252 44.8493 35.0796C44.6937 30.2008 40.8784 27.5208 37.3557 27.5188C34.001 27.5167 30.0426 30.0121 29.8331 35.2518H29.8269V39.446C30.6567 39.446 31.4866 39.4439 32.3144 39.4419C33.5529 39.4377 34.445 38.8631 34.6089 37.8094C34.694 37.2576 34.5487 36.6333 34.3765 36.0836C33.9471 34.7125 34.3641 33.2169 35.4782 32.4286C36.669 31.5865 38.1939 31.6321 39.3432 32.5407C40.3805 33.3621 40.7581 34.7975 40.283 36.1043C39.5341 38.1558 40.4283 39.4356 42.6128 39.4336C45.6003 39.4315 48.5878 39.4253 51.5006 39.4211C51.5006 41.734 51.5006 44.0136 51.4985 46.3701C49.177 46.4178 47.1438 47.3346 45.6273 49.245C44.4883 50.6846 43.9738 52.3482 44.0381 54.1881C44.1543 57.507 46.76 61.1785 51.4944 61.3382C51.5026 63.5992 51.5089 65.8582 51.5151 68.0943C49.3243 68.0963 47.0795 68.0984 44.7871 68.1005C44.7559 65.8457 43.9406 63.8855 42.2104 62.3775C40.7685 61.1225 39.0611 60.523 37.1379 60.5604C33.5882 60.6288 29.9514 63.4146 29.8248 68.1876C28.6879 68.1835 27.5469 68.1731 26.4058 68.1772C25.2585 68.1835 24.1133 68.2063 22.9225 68.2229C22.9121 67.9179 22.8955 67.6898 22.8955 67.4616C22.8955 64.6157 22.9038 61.7718 22.8976 58.9279C22.8934 57.0092 21.5138 56.0778 19.7068 56.7603C18.2151 57.3265 16.8168 56.9366 15.8812 55.6941C15.0783 54.6279 15.1032 53.0638 15.9414 51.9479C16.7982 50.8091 18.2815 50.4398 19.7483 50.9999C21.4993 51.6678 22.8997 50.724 22.9059 48.8426C22.9163 45.7374 22.9038 42.6301 22.8997 39.4502H24.6009V35.1398C23.7461 35.1398 22.8934 35.1439 22.0387 35.1543C19.9744 35.1792 18.6363 36.5254 18.6239 38.5893C18.6093 41.1677 18.6239 43.7481 18.6239 46.3887C16.1716 46.4551 14.1281 47.3388 12.6074 49.2596C11.4166 50.7655 10.9041 52.4913 11.0141 54.408C11.205 57.7041 13.9207 61.2408 18.5678 61.3652C18.5782 61.5913 18.5969 61.8195 18.5969 62.0497C18.5969 64.1054 18.6114 66.161 18.5844 68.2146C18.572 69.2019 18.6197 70.1644 19.0823 71.0605C19.3852 71.3654 19.6902 71.6683 19.9931 71.9732C20.8852 72.4482 21.8478 72.498 22.8354 72.4918C25.9183 72.4669 29.0032 72.4109 32.0841 72.498C34.2334 72.5561 35.1442 70.71 34.4056 69.1501C33.777 67.8225 34.3019 66.3041 35.4616 65.4537C36.5694 64.6385 38.1275 64.6675 39.2706 65.5283C40.3287 66.3228 40.7353 67.8225 40.2519 69.1459C39.5009 71.1933 40.3951 72.4648 42.5859 72.4628C47.5276 72.4607 52.4694 72.4545 57.4112 72.4524V68.0217C56.9133 68.0217 56.4133 68.0237 55.9112 68.0237C55.9195 65.0658 55.9527 62.0331 55.9195 59.0005C55.9133 58.4342 55.7598 57.7933 55.459 57.3265C54.8843 56.4387 53.9175 56.2811 52.7765 56.7167C51.3512 57.2602 49.9322 56.9345 49.0691 55.8683C48.1521 54.7316 48.0878 53.1572 48.9135 52.008C49.7496 50.8443 51.235 50.4004 52.6167 50.9003C52.7059 50.9335 52.7931 50.975 52.8823 51.0082C54.4963 51.6098 55.9258 50.6597 55.9424 48.9215C55.9714 46.0299 55.959 43.1383 55.9527 40.2467C55.9527 39.9853 55.8801 39.7261 55.8324 39.4045C59.1062 39.4087 62.2098 39.4025 65.3135 39.417C66.3114 39.4211 67.0914 39.0768 67.5396 38.1558C67.8674 37.4837 67.7304 36.8282 67.469 36.1499C66.6143 33.9284 68.2387 31.6777 70.5748 31.8064C72.7344 31.9246 74.0705 34.0819 73.278 36.1707C72.8174 37.3862 72.9564 38.301 73.8734 38.9191C74.3132 39.2158 74.9294 39.3734 75.4709 39.3817C78.2654 39.4253 81.062 39.4004 83.8586 39.39C84.12 39.39 84.3814 39.3174 84.5619 39.2884C84.5619 41.7215 84.5599 44.0074 84.5599 46.3016C79.6471 47.1562 77.0455 49.7989 77.0601 53.8936C77.0725 57.0341 79.4251 61.1059 84.5702 61.3196C84.5682 63.5619 84.5661 65.8022 84.564 67.9988C82.3794 67.9926 80.1243 67.9843 77.8629 67.976C77.6451 62.8463 73.5083 60.5189 70.3652 60.5127C67.274 60.5044 63.0874 62.8006 62.8281 68.0113V72.4482H65.1683C65.9691 72.4482 66.6848 72.2989 67.2159 71.6393C67.8445 70.8552 67.7864 70.04 67.4296 69.1501C66.8695 67.7458 67.3321 66.2813 68.5437 65.3956C69.6391 64.5928 71.2117 64.6509 72.3444 65.5346C73.3776 66.3415 73.7676 67.8018 73.2987 69.0962C72.5477 71.1684 73.4191 72.4316 75.6057 72.4316C78.6389 72.4316 81.674 72.413 84.7092 72.4316C85.6988 72.4379 86.6594 72.3819 87.5536 71.9089C87.8565 71.604 88.1614 71.3011 88.4664 70.9962C88.9311 70.098 88.9768 69.1376 88.9705 68.1503C88.9519 65.1156 88.9705 62.0788 88.9705 59.0441C88.9705 56.9034 87.6801 55.999 85.6864 56.7374C84.3296 57.2415 82.8109 56.8266 82.0143 55.7376C81.1803 54.5926 81.1533 53.0555 81.9479 51.9893C82.8524 50.778 84.2819 50.361 85.7134 50.8941Z" fill="white"/>
</svg>
