<svg width="98" height="97" viewBox="0 0 98 97" fill="none" xmlns="http://www.w3.org/2000/svg">
<circle cx="49" cy="48.2344" r="48.1499" fill="#0000FF"/>
<path d="M50.0232 24.1187C51.0594 24.2769 52.1144 24.3586 53.1292 24.606C57.6481 25.7113 61.4411 27.9885 64.0534 31.9035C66.2413 35.1817 67.0137 38.8054 65.9298 42.6777C65.1888 45.3267 63.6201 47.4305 61.3456 48.9779C60.0356 49.8685 58.6805 50.6912 57.3492 51.549C55.7365 52.589 54.7581 54.0498 54.3638 55.9326C54.0071 57.6357 53.673 57.8719 51.936 57.8731C49.3776 57.8756 46.818 57.8794 44.2596 57.8819C43.2926 57.8819 42.9409 57.6445 42.6734 56.6925C42.1396 54.7933 42.3255 52.9194 43.0602 51.117C44.1529 48.4353 46.1536 46.5438 48.5676 45.0579C49.7821 44.3105 51.0455 43.6423 52.2663 42.9051C53.2033 42.3386 53.9418 41.5812 54.252 40.491C54.6979 38.9209 54.046 37.3044 52.6117 36.3159C50.4138 34.8024 46.1109 34.3151 43.4759 37.1336C42.598 38.0731 41.7565 39.0478 40.9251 40.03C39.7307 41.4393 39.2496 41.5071 37.7953 40.3993C36.0357 39.0578 34.2748 37.7177 32.5165 36.375C31.4502 35.5611 31.3258 35.0172 32.0028 33.8441C34.9694 28.7082 39.4581 25.705 45.2079 24.5043C46.0795 24.3221 46.9725 24.2443 47.8567 24.1187C48.5789 24.1187 49.301 24.1187 50.0232 24.1187Z" fill="white"/>
<path d="M43.7121 72.3501C42.6332 71.8816 42.4297 71.4985 42.431 70.2839C42.4335 67.7417 42.3946 65.1995 42.3833 62.6573C42.382 62.2993 42.4235 61.9376 42.4775 61.5822C42.5817 60.8926 43.0087 60.502 43.6844 60.3839C43.9921 60.3299 44.3061 60.2822 44.6176 60.2809C47.1911 60.2734 49.7645 60.252 52.3379 60.2872C54.0573 60.3111 54.5409 60.8273 54.5371 62.5506C54.5321 65.2498 54.4919 67.949 54.4806 70.6482C54.4768 71.5349 54.0485 72.08 53.2259 72.3501H43.7121Z" fill="white"/>
</svg>
