<svg width="100" height="100" viewBox="0 0 100 100" fill="none" xmlns="http://www.w3.org/2000/svg">
<path d="M89.9844 0H10.0156C4.48414 0 0 5.47824 0 12.236V87.764C0 94.5218 4.48414 100 10.0156 100H89.9844C95.5159 100 100 94.5218 100 87.764V12.236C100 5.47824 95.5159 0 89.9844 0Z" fill="#0000FF"/>
<path d="M33.2265 57.2024H28.1061V62.2173H33.2265V57.2024Z" fill="white"/>
<path d="M76.5741 27H23.4259C19.8818 27 17 29.8967 17 33.459V66.5431C17 70.1033 19.8818 73.0021 23.4259 73.0021H76.5741C80.1161 73.0021 83 70.1055 83 66.5431V33.459C83 29.8988 80.1182 27 76.5741 27ZM75.8463 64.3249C75.8463 65.1437 75.184 65.8094 74.3694 65.8094H25.6306C24.816 65.8094 24.1537 65.1437 24.1537 64.3249V35.6751C24.1537 34.8563 24.816 34.1906 25.6306 34.1906H74.3715C75.1861 34.1906 75.8484 34.8563 75.8484 35.6751V40.2945H28.1061V45.3094H75.8463V64.327V64.3249Z" fill="white"/>
</svg>
