<svg width="100" height="100" viewBox="0 0 100 100" fill="none" xmlns="http://www.w3.org/2000/svg">
<path d="M89.9844 0H10.0156C4.48414 0 0 5.47824 0 12.236V87.764C0 94.5218 4.48414 100 10.0156 100H89.9844C95.5159 100 100 94.5218 100 87.764V12.236C100 5.47824 95.5159 0 89.9844 0Z" fill="#0000FF"/>
<path d="M64.7795 63.143C64.7795 61.3762 64.7795 59.6111 64.7795 57.8443C64.7795 54.8456 62.7663 52.8289 59.7694 52.8271H40.2288C37.2337 52.8289 35.2205 54.8474 35.2205 57.8478C35.2205 59.6129 35.2205 61.3797 35.2205 63.1448V72.9485C34.5324 72.9485 33.4818 72.9467 33.1791 72.945H32.6494V77.3568H67.4227V72.9415C67.4227 72.9415 65.4817 72.9485 64.7813 72.9503V63.1448L64.7795 63.143ZM59.7202 57.2372C60.3537 57.2372 60.3713 57.2548 60.3713 57.8848C60.3713 60.5227 60.3713 63.1571 60.3713 65.7932V72.9239H39.627V57.8777C39.627 57.2618 39.627 57.2372 40.2869 57.2372H59.7184H59.7202Z" fill="white"/>
<path d="M74.3985 65.7665C74.3457 64.6931 74.2841 63.6407 74.1029 62.5901C72.6862 54.4547 68.2445 48.3728 60.8992 44.5154C60.908 44.4978 60.9168 44.4802 60.9256 44.4609C61.0981 44.1089 61.2617 43.7781 61.4043 43.4208C62.2402 41.3214 62.3 39.1533 62.2595 37.5009C62.2542 37.2774 62.2894 37.2281 62.4302 37.1296C63.7747 36.1916 64.871 34.9281 65.6876 33.376C66.9951 30.8947 67.5248 28.1653 67.3066 25.0346C67.1957 23.4262 66.3756 22.6431 64.8006 22.6431H57.6841C55.2538 22.6431 52.8218 22.6431 50.3915 22.6466C49.7827 22.6466 49.1491 22.68 48.5103 22.7451C43.3031 23.2766 38.777 27.5141 37.9851 32.6034C37.7933 33.8318 37.7809 35.0882 37.7669 36.3025C37.7616 36.8568 37.7545 37.4305 37.7317 37.9884C37.6296 40.489 38.0801 42.6272 39.1078 44.5066C39.048 44.5365 38.9882 44.5682 38.9283 44.5999C30.5588 49.1859 26.0749 56.3077 25.6032 65.7665L25.5751 66.3209H29.9957L30.0273 65.7472C30.0766 64.8303 30.1276 63.8818 30.3001 62.9896C31.6199 56.0737 35.5407 51.046 41.9569 48.042C41.9939 48.0244 42.0132 48.0209 42.0132 48.0191C42.022 48.0209 42.0484 48.0315 42.11 48.0666C42.11 48.0666 42.4496 48.2743 42.5939 48.364C43.1254 48.6914 43.6727 49.0292 44.2376 49.3319L44.3414 49.4322H44.4417C45.3146 49.8352 46.2244 50.1467 47.1465 50.3579C48.1109 50.5814 49.0893 50.694 50.0537 50.694C51.2186 50.694 52.3854 50.5286 53.5204 50.203C54.9687 49.7877 56.3906 49.1032 57.751 48.1705L57.7774 48.1511C57.8777 48.0737 57.9516 48.0332 57.9991 48.0332C58.029 48.0332 58.0853 48.0438 58.1891 48.0948C65.5486 51.7323 69.5204 57.6962 69.9902 65.8211L70.0184 66.3191H74.4249L74.3985 65.7648V65.7665ZM47.5073 39.6285C49.3603 39.6285 51.2134 39.6285 53.0647 39.6267C53.2987 39.6267 53.5328 39.6302 53.7668 39.632C54.0061 39.6355 54.2437 39.6373 54.483 39.6373C54.9987 39.6373 55.3981 39.6232 55.773 39.5951C56.3994 39.5475 57.0259 39.442 57.6313 39.3381C57.7087 39.3258 57.7844 39.3117 57.8618 39.2994C57.8583 39.9241 57.7369 40.584 57.4975 41.3003L57.4694 41.383V41.3936C56.8007 43.6426 54.9705 46.284 50.0713 46.284C44.1778 46.284 42.6573 42.6553 42.2719 40.4749C42.2174 40.211 42.1769 39.9259 42.1558 39.6267H47.5073V39.6285ZM49.7615 35.2413C48.4575 35.2413 47.1535 35.2361 45.8495 35.2308C44.6142 35.2255 43.3788 35.2202 42.1434 35.2202C42.0343 31.7112 44.5913 28.3184 48.1425 27.3663C48.8553 27.1745 49.5398 27.076 50.1769 27.0707C52.7285 27.0531 55.282 27.0513 57.223 27.0513C58.1962 27.0513 61.9797 27.0531 62.9001 27.0531C62.9564 28.526 62.6238 29.8934 61.9093 31.1235C60.373 33.7702 58.1064 35.1393 55.1746 35.1974C53.5803 35.2273 51.861 35.2413 49.7633 35.2413H49.7615Z" fill="white"/>
</svg>
