<svg width="100" height="100" viewBox="0 0 100 100" fill="none" xmlns="http://www.w3.org/2000/svg">
<path d="M89.9844 0H10.0156C4.48414 0 0 5.47824 0 12.236V87.764C0 94.5218 4.48414 100 10.0156 100H89.9844C95.5159 100 100 94.5218 100 87.764V12.236C100 5.47824 95.5159 0 89.9844 0Z" fill="#0000FF"/>
<path d="M70.5658 34.1574C66.4716 28.8358 60.9795 25.5338 54.2378 24.3452C53.64 24.2404 53.044 24.1699 52.4679 24.1031C52.2096 24.0724 51.9532 24.0435 51.6967 24.011L51.6209 24.002H48.3611L48.2798 24.0128C47.9963 24.0525 47.7127 24.0887 47.4292 24.1248C46.8043 24.2043 46.1577 24.2874 45.5148 24.4012C40.0697 25.3603 35.3398 27.8531 31.4515 31.8145C27.4856 35.8554 25.0565 40.7849 24.2366 46.4624C24.1752 46.8923 24.1246 47.3222 24.0759 47.7377C24.0542 47.9273 24.0307 48.117 24.009 48.3067L24 48.3789V51.634L24.0108 51.7153C24.0506 52.0025 24.0867 52.2915 24.1228 52.5805C24.2023 53.22 24.2853 53.8811 24.4063 54.5405C25.4845 60.469 28.3272 65.5087 32.8584 69.5189C36.7828 72.9907 41.3701 75.0915 46.4937 75.7599C47.7398 75.9225 48.9823 76.0056 50.1887 76.0056C55.8397 76.0056 61.0536 74.2209 65.6842 70.7003C71.2087 66.4986 74.5588 60.9386 75.6388 54.172C76.8163 46.8002 75.1096 40.0678 70.5676 34.1646L70.5658 34.1574ZM49.9991 29.4825C55.4749 29.4843 60.6292 31.6321 64.5139 35.5266C68.3913 39.4157 70.5206 44.5657 70.5062 50.0263C70.4791 61.3252 61.2793 70.5178 49.9865 70.5178C44.5125 70.516 39.36 68.3682 35.4753 64.4719C31.596 60.581 29.4667 55.4328 29.4794 49.9721C29.5047 38.6733 38.7044 29.4825 49.9901 29.4825" fill="white"/>
<path d="M47.254 37.4466C47.254 41.6338 47.254 45.9654 47.2666 50.2249C47.2666 50.7704 47.5177 51.3737 47.9023 51.7621C50.4921 54.3741 53.1361 57.0168 55.6934 59.5728L57.0064 60.8843C57.0949 60.9728 57.1888 61.0595 57.2755 61.1372L57.3603 61.2166L58.2019 62.0042L62.1625 58.0284L61.1349 57.1975C61.0861 57.1577 61.0337 57.118 60.9796 57.0782C60.92 57.0331 60.8513 56.9807 60.8224 56.9518C60.0133 56.1443 59.2061 55.3351 58.397 54.5276C56.5531 52.6833 54.6477 50.7758 52.7623 48.908C52.746 48.8918 52.7352 48.8791 52.728 48.8719C52.7262 48.8574 52.7244 48.8322 52.7244 48.787C52.7334 45.1779 52.7334 41.5109 52.7316 37.9632V33.3245H47.2504V37.443L47.254 37.4466Z" fill="white"/>
</svg>
