<svg width="100" height="100" viewBox="0 0 100 100" fill="none" xmlns="http://www.w3.org/2000/svg">
<path d="M89.9844 0H10.0156C4.48414 0 0 5.47824 0 12.236V87.764C0 94.5218 4.48414 100 10.0156 100H89.9844C95.5159 100 100 94.5218 100 87.764V12.236C100 5.47824 95.5159 0 89.9844 0Z" fill="#0000FF"/>
<path d="M65.887 48.3576L57.8259 56.3573H61.7992C61.2459 59.3965 60.1163 61.8107 58.3502 63.7278C55.5709 66.7397 52.1323 68.2687 48.1319 68.2687C47.3789 68.2687 46.5946 68.2142 45.7999 68.1072C38.8352 67.1739 34.0756 61.8778 33.6762 54.6122C33.4557 50.6732 34.7933 47.1474 37.6495 44.1355C39.3802 42.3149 41.4647 41.0417 43.8424 40.3475L44.5705 40.1356L42.4944 32.7253L41.758 32.9393C39.9523 33.4657 38.1779 34.2544 36.4824 35.28C28.4089 40.1881 24.3566 50.0356 26.6241 59.2266C27.8701 64.2731 30.3727 68.3107 34.0652 71.2303C38.0697 74.3954 42.561 75.9978 47.4101 75.9978C48.7248 75.9978 50.0832 75.8783 51.4437 75.6392C60.2931 74.0808 66.122 68.8183 68.766 59.9964C69.0469 59.0546 69.2341 58.0793 69.4151 57.1355C69.4608 56.8964 69.5087 56.6531 69.5565 56.4077H73.9979L65.8849 48.3576H65.887Z" fill="white"/>
<path d="M59.4027 29.0983L44.5422 49.9038L51.968 55.2958L66.8286 34.4903L59.4027 29.0983Z" fill="white"/>
<path d="M68.0213 24.9439C67.21 24.3356 66.2094 24 65.2005 24C63.8816 24 62.6355 24.5642 61.7847 25.55C61.3749 26.024 61.0504 26.5568 60.7654 27.0266C60.6468 27.2196 60.5324 27.4084 60.4159 27.5866L60.0103 28.2012L67.3869 33.5833L67.8383 32.9939C67.9673 32.824 68.1066 32.6541 68.246 32.4821C68.5851 32.0647 68.9367 31.6305 69.2404 31.1397C70.4885 29.1157 69.9518 26.3932 68.0213 24.9439Z" fill="white"/>
<path d="M43.8237 50.9983L43.4721 51.982C43.4493 52.0407 43.4118 52.1393 43.3848 52.2526L42.8356 54.4381C42.4154 56.1098 41.9952 57.7814 41.5687 59.451C41.3087 60.4662 41.7351 61.0283 42.1366 61.3219C42.4133 61.5254 42.7191 61.6282 43.0395 61.6282C43.3785 61.6282 43.7197 61.5128 44.0837 61.2758C44.5705 60.9591 45.0573 60.6445 45.5441 60.3299C45.9269 60.0824 46.3096 59.8349 46.6903 59.5874C47.6472 58.9665 48.6062 58.3436 49.5424 57.7332L51.4208 56.5125L44.6475 51.5919L43.8258 51.0025L43.8237 50.9983Z" fill="white"/>
</svg>
